<svg width="32" height="32" viewBox="0 0 32 32" fill="none" xmlns="http://www.w3.org/2000/svg">
  <!-- Ultra-brutalist favicon for SYMBI Synergy -->
  <rect width="32" height="32" fill="#FFFFFF"/>
  <rect x="2" y="2" width="28" height="28" fill="#000000" stroke="#000000" stroke-width="2"/>
  
  <!-- SY letters in brutalist style -->
  <g fill="#FFFFFF" font-family="Inter, system-ui, sans-serif" font-weight="900" font-size="14" text-anchor="middle">
    <!-- S -->
    <path d="M10 9 L10 11 L14 11 L14 13 L10 13 L10 15 L16 15 L16 13 L12 13 L12 11 L16 11 L16 9 Z"/>
    <!-- Y -->
    <path d="M18 9 L18 12 L20 12 L20 15 L22 15 L22 12 L24 12 L24 9 L22 9 L22 11 L20 11 L20 9 Z"/>
  </g>
  
  <!-- Sharp border accent -->
  <rect x="0" y="0" width="32" height="32" fill="none" stroke="#000000" stroke-width="2"/>
</svg>